<?xml version="1.0" encoding="UTF-8"?><svg id="Layer_2" xmlns="http://www.w3.org/2000/svg" viewBox="0 0 1000 301.68"><g id="Layer_1-2"><path d="M150,289.59c0-6.58,5.27-11.86,12.09-11.86,6.03,0,10.81,4.13,11.79,9.66h-5.73c-.92-2.56-3.24-4.29-6.06-4.29-3.57,0-6.48,2.78-6.48,6.48s2.91,6.49,6.48,6.49c2.82,0,5.14-1.74,6.03-4.32h5.77c-.98,5.57-5.77,9.7-11.79,9.7-6.81,0-12.09-5.27-12.09-11.86Z"/><path d="M192.56,278.13h11.4c5.27,0,8.32,3.73,8.32,7.83,0,2.82-1.44,5.47-4.03,6.85l4.68,8.25h-5.8l-4.09-7.27h-5.08v7.27h-5.4v-22.93ZM203.69,288.97c1.7,0,2.98-1.31,2.98-2.95s-1.28-2.95-2.98-2.95h-5.73v5.9h5.73Z"/><path d="M231.38,278.13h18.05v4.95h-12.64v4.03h11.66v4.65h-11.66v4.36h12.97v4.95h-18.37v-22.93Z"/><path d="M277.57,278.13h3.73l10.97,22.93h-6.06l-1.74-3.8h-10.32l-1.74,3.8h-5.93l11.07-22.93ZM282.58,293.06l-3.21-7.07-3.28,7.07h6.49Z"/><path d="M311.31,283.07h-7.37v-4.95h20.18v4.95h-7.4v17.98h-5.4v-17.98Z"/><path d="M342.11,278.13h5.4v22.93h-5.4v-22.93Z"/><path d="M365.21,278.13h6.19l6.06,14.9,5.83-14.9h5.96l-10.06,23.55h-3.73l-10.25-23.55Z"/><path d="M407.01,278.13h18.05v4.95h-12.64v4.03h11.66v4.65h-11.66v4.36h12.97v4.95h-18.37v-22.93Z"/><path d="M466.9,278.13h11.4c5.27,0,8.32,3.73,8.32,7.83s-3.05,7.83-8.32,7.83h-5.99v7.27h-5.4v-22.93ZM478.03,288.97c1.7,0,2.98-1.31,2.98-2.95s-1.28-2.95-2.98-2.95h-5.73v5.9h5.73Z"/><path d="M504.11,289.59c0-6.58,5.27-11.86,12.09-11.86s12.05,5.27,12.05,11.86-5.27,11.86-12.05,11.86-12.09-5.27-12.09-11.86ZM516.2,296.08c3.54,0,6.45-2.78,6.45-6.49s-2.92-6.48-6.45-6.48-6.48,2.78-6.48,6.48,2.91,6.49,6.48,6.49Z"/><path d="M565.83,301.05l-5.27-14.67-5.31,14.67h-3.64l-7.73-22.93h5.9l4.13,13.2,4.72-13.2h3.8l4.78,13.2,4.16-13.2h5.8l-7.7,22.93h-3.64Z"/><path d="M594.96,278.13h18.05v4.95h-12.64v4.03h11.66v4.65h-11.66v4.36h12.97v4.95h-18.37v-22.93Z"/><path d="M632.21,278.13h11.4c5.27,0,8.32,3.73,8.32,7.83,0,2.82-1.44,5.47-4.03,6.85l4.68,8.25h-5.8l-4.09-7.27h-5.08v7.27h-5.4v-22.93ZM643.35,288.97c1.7,0,2.98-1.31,2.98-2.95s-1.28-2.95-2.98-2.95h-5.73v5.9h5.73Z"/><path d="M671.03,278.13h5.4v8.32h10.32v-8.32h5.41v22.93h-5.41v-9.5h-10.32v9.5h-5.4v-22.93Z"/><path d="M710.8,289.59c0-6.58,5.27-11.86,12.09-11.86s12.05,5.27,12.05,11.86-5.27,11.86-12.05,11.86-12.09-5.27-12.09-11.86ZM722.89,296.08c3.54,0,6.45-2.78,6.45-6.49s-2.92-6.48-6.45-6.48-6.48,2.78-6.48,6.48,2.92,6.49,6.48,6.49Z"/><path d="M753.39,291v-12.87h5.4v12.87c0,2.95,2,5.08,5.01,5.08s5.01-2.13,5.01-5.08v-12.87h5.4v12.87c0,6.71-4.68,10.45-10.42,10.45s-10.42-3.73-10.42-10.45Z"/><path d="M792.61,293.72h5.4c.16,1.83,1.77,3.24,5.01,3.24,3.05,0,4.39-.85,4.39-2.29,0-1.54-1.21-2.29-5.04-2.69-5.99-.66-9.2-2.75-9.2-7.17,0-4.03,3.37-7.07,9.24-7.07,6.32,0,9.76,3.01,10.06,7.44h-5.41c-.16-1.83-2-2.95-4.58-2.95-2.2,0-3.83.75-3.83,2.26,0,1.38,1.31,2.13,5.5,2.62,5.96.72,8.81,2.85,8.81,7.17s-3.51,7.17-9.86,7.17c-6.88,0-10.25-3.34-10.48-7.73Z"/><path d="M831.62,278.13h18.05v4.95h-12.64v4.03h11.66v4.65h-11.66v4.36h12.97v4.95h-18.38v-22.93Z"/><path d="M220.38,0h27.58v238.34h-27.58V0Z"/><path d="M272.17,58.43h27.58v179.91h-27.58V58.43Z"/><path d="M319.8,179.78h28.26c1.36,22.47,18.39,37.45,49.03,37.45s45.96-10.55,45.96-27.92c0-21.11-20.77-26.56-52.43-30.98-40.18-5.45-66.74-19.07-66.74-52.43s28.6-52.1,70.48-52.1c36.77,0,68.78,19.41,71.84,56.86h-28.26c-2.04-20.09-17.71-32.35-43.58-32.35-28.26,0-42.9,9.87-42.9,25.54,0,20.09,19.75,24.86,51.07,29.62,37.45,5.79,68.1,16.34,68.1,55.16,0,32.01-29.96,53.12-73.2,53.12-45.96,0-75.25-24.17-77.63-61.97Z"/><path d="M486.34,179.78h28.26c1.36,22.47,18.39,37.45,49.03,37.45s45.96-10.55,45.96-27.92c0-21.11-20.77-26.56-52.43-30.98-40.18-5.45-66.74-19.07-66.74-52.43s28.6-52.1,70.48-52.1c36.77,0,68.78,19.41,71.84,56.86h-28.26c-2.04-20.09-17.71-32.35-43.58-32.35-28.26,0-42.9,9.87-42.9,25.54,0,20.09,19.75,24.86,51.07,29.62,37.45,5.79,68.1,16.34,68.1,55.16,0,32.01-29.96,53.12-73.2,53.12-45.96,0-75.25-24.17-77.63-61.97Z"/><path d="M649.9,147.77c0-52.09,38.82-93.97,92.61-93.97s91.25,38.82,91.25,88.53c0,4.43-.34,7.83-1.36,11.92h-154.58c3.06,34.05,29.62,60.95,65.37,60.95,24.86,0,42.9-11.24,54.82-28.94h30.3c-14.3,32.69-45.97,55.5-85.12,55.5-53.12,0-93.29-41.88-93.29-93.97ZM804.82,129.73c-5.45-29.28-28.6-50.39-62.31-50.39s-56.18,20.43-62.99,50.39h125.3Z"/><path d="M849.16,179.78h28.26c1.36,22.47,18.39,37.45,49.03,37.45s45.97-10.55,45.97-27.92c0-21.11-20.77-26.56-52.44-30.98-40.18-5.45-66.74-19.07-66.74-52.43s28.6-52.1,70.48-52.1c36.77,0,68.78,19.41,71.84,56.86h-28.26c-2.04-20.09-17.71-32.35-43.58-32.35-28.26,0-42.9,9.87-42.9,25.54,0,20.09,19.75,24.86,51.07,29.62,37.45,5.79,68.1,16.34,68.1,55.16,0,32.01-29.96,53.12-73.2,53.12-45.97,0-75.25-24.17-77.63-61.97Z"/><path d="M285.79,0c9.87,0,18.05,8.17,18.05,18.05s-8.17,17.71-18.05,17.71-17.7-7.83-17.7-17.71S276.26,0,285.79,0Z"/><path d="M168.54,58.43v84.23c0,41.88-26.56,71.84-70.48,71.84s-70.48-29.96-70.48-71.84V58.43H0v84.23c0,59.58,41.2,99.08,98.06,99.08s98.06-39.5,98.06-99.08V58.43h-27.58Z"/></g></svg>